<svg width="14" height="14" viewBox="0 0 14 14" fill="none" xmlns="http://www.w3.org/2000/svg">
<path d="M1.62669 11.0323C1.67264 10.6188 1.69561 10.4121 1.75816 10.2188C1.81367 10.0474 1.89208 9.88423 1.99129 9.73379C2.10311 9.56422 2.2502 9.41713 2.54438 9.12295L9.91733 1.75001C10.5617 1.10568 11.6063 1.10568 12.2507 1.75001V1.75001C12.895 2.39434 12.895 3.43901 12.2507 4.08334L4.87771 11.4563C4.58353 11.7505 4.43644 11.8976 4.26687 12.0094C4.11643 12.1086 3.95327 12.187 3.78183 12.2425C3.58859 12.3051 3.38184 12.328 2.96835 12.374L1.45898 12.5417L1.62669 11.0323Z" stroke="#F3F3F3" stroke-width="1.3" stroke-linecap="round" stroke-linejoin="round"/>
</svg>
