<svg width="100%" height="100%" viewBox="0 0 24 25" fill="none" xmlns="http://www.w3.org/2000/svg">
<g opacity="0.8">
<path d="M20 21.5C20 20.1044 20 19.4067 19.8278 18.8389C19.44 17.5605 18.4395 16.56 17.1611 16.1722C16.5933 16 15.8956 16 14.5 16H9.5C8.10444 16 7.40665 16 6.83886 16.1722C5.56045 16.56 4.56004 17.5605 4.17224 18.8389C4 19.4067 4 20.1044 4 21.5M16.5 8C16.5 10.4853 14.4853 12.5 12 12.5C9.51472 12.5 7.5 10.4853 7.5 8C7.5 5.51472 9.51472 3.5 12 3.5C14.4853 3.5 16.5 5.51472 16.5 8Z" stroke="current" stroke-width="2" stroke-linecap="round" stroke-linejoin="round"/>
</g>
</svg>
