<svg aria-hidden="true" style="position:absolute;width:0;height:0;overflow:hidden" xmlns="http://www.w3.org/2000/svg"><defs><symbol id="icon-done" viewBox="0 0 32 32"><path d="m14.133 18.4-2.9-2.9c-.244-.244-.55-.361-.916-.349s-.673.138-.917.383-.367.556-.367.933c0 .378.122.689.367.933l3.8 3.8c.244.244.556.367.933.367s.689-.122.933-.367l7.567-7.567c.244-.244.361-.55.351-.917s-.14-.672-.384-.916-.556-.367-.933-.367c-.378 0-.689.122-.933.367l-6.6 6.6zM16 29.333c-1.844 0-3.578-.35-5.2-1.051s-3.033-1.649-4.233-2.849-2.15-2.611-2.849-4.233c-.7-1.622-1.051-3.356-1.051-5.2s.35-3.578 1.051-5.2c.7-1.622 1.649-3.033 2.849-4.233s2.611-2.15 4.233-2.851c1.622-.7 3.356-1.049 5.2-1.049s3.578.35 5.2 1.049c1.622.7 3.033 1.651 4.233 2.851s2.15 2.611 2.849 4.233c.7 1.622 1.051 3.356 1.051 5.2s-.35 3.578-1.051 5.2c-.7 1.622-1.649 3.033-2.849 4.233s-2.611 2.15-4.233 2.849c-1.622.7-3.356 1.051-5.2 1.051zm0-2.666c2.956 0 5.472-1.039 7.551-3.116s3.116-4.595 3.116-7.551c0-2.956-1.039-5.472-3.116-7.551S18.956 5.333 16 5.333c-2.956 0-5.472 1.039-7.549 3.116S5.334 13.044 5.334 16c0 2.956 1.039 5.472 3.117 7.551s4.594 3.116 7.549 3.116z"/></symbol><symbol id="icon-eye-off" viewBox="0 0 32 32"><path stroke-linejoin="round" stroke-linecap="round" stroke-width="2.4" d="M23.92 23.92A13.43 13.43 0 0 1 16 26.667C6.667 26.667 1.333 16 1.333 16A24.605 24.605 0 0 1 8.08 8.08m5.12-2.427a12.161 12.161 0 0 1 2.8-.32C25.333 5.333 30.667 16 30.667 16a24.646 24.646 0 0 1-2.88 4.253m-8.96-1.426a4.01 4.01 0 0 1-2.855 1.273 4 4 0 0 1-2.796-6.926M1.333 1.333l29.333 29.333"/></symbol><symbol id="icon-eye" viewBox="0 0 32 32"><path stroke-linejoin="round" stroke-linecap="round" stroke-width="2.4" d="M1.333 16S6.666 5.333 16 5.333 30.667 16 30.667 16 25.334 26.667 16 26.667 1.333 16 1.333 16z"/><path stroke-linejoin="round" stroke-linecap="round" stroke-width="2.4" d="M16 20a4 4 0 1 0 0-8 4 4 0 0 0 0 8z"/></symbol><symbol id="icon-error" viewBox="0 0 32 32"><path d="M14.667 20h2.667v2.667h-2.667V20zm0-10.667h2.667v8h-2.667v-8zm1.32-6.666C8.627 2.667 2.667 8.64 2.667 16s5.96 13.333 13.32 13.333c7.373 0 13.347-5.973 13.347-13.333S23.361 2.667 15.987 2.667zm.013 24c-5.893 0-10.667-4.773-10.667-10.667S10.106 5.333 16 5.333c5.893 0 10.667 4.773 10.667 10.667S21.894 26.667 16 26.667z"/></symbol><symbol id="icon-youtube" viewBox="0 0 32 32"><path d="M24.24 6c-1.36-.08-4.16-.16-8.4-.16h-.56c-4.08 0-6.8.08-8.16.24-1.84.16-3.12.64-3.84 1.28-.64.56-1.12 1.6-1.28 2.96-.08.88-.16 2.72-.16 5.52v.4c0 2.64.08 4.48.24 5.36.24 1.28.64 2.24 1.44 2.8.8.64 2.16 1.04 4.08 1.2 1.36.08 4.16.16 8.4.16h.56c4.08 0 6.8-.08 8.16-.24 1.84-.16 3.12-.64 3.84-1.28.64-.56 1.12-1.6 1.28-2.96.08-.88.16-2.72.16-5.52v-.4c0-2.64-.08-4.48-.24-5.36-.24-1.28-.64-2.24-1.44-2.8-.8-.64-2.16-1.04-4.08-1.2zm-3.12 9.84-8.8 5.28V10.56l8.8 5.28z"/></symbol><symbol id="icon-burger" viewBox="0 0 32 32"><path stroke-linejoin="round" stroke-linecap="round" stroke-width="2" d="M28 13.333H4M28 8H4M28 18.667H4M28 24H4"/></symbol><symbol id="icon-calendar" viewBox="0 0 32 32"><path stroke-linejoin="round" stroke-linecap="round" stroke-width="2.4" d="M25.333 5.333H6.666A2.667 2.667 0 0 0 3.999 8v18.667a2.667 2.667 0 0 0 2.667 2.667h18.667A2.667 2.667 0 0 0 28 26.667V8a2.667 2.667 0 0 0-2.667-2.667zM21.333 2.667V8M10.667 2.667V8M4 13.333h24"/></symbol><symbol id="icon-chevron-down" viewBox="0 0 32 32"><path stroke-linejoin="round" stroke-linecap="round" stroke-width="2.88" d="m8 12 8 8 8-8"/></symbol><symbol id="icon-cross" viewBox="0 0 32 32"><path stroke-linejoin="round" stroke-linecap="round" stroke-width="2.667" d="M24 8 8 24M8 8l16 16"/></symbol><symbol id="icon-facebook" viewBox="0 0 32 32"><path d="M19.399 5.507h.927v3.476h-1.159c-.464 0-.927 0-1.159.232-.232.232-.232.463-.232 1.004v1.236h2.549v2.935h-2.549v12.745h-3.939V14.313h-2.086v-2.935h2.086v-1.004c0-1.699.232-2.935.695-3.476.695-1.004 2.086-1.468 4.171-1.468.232.077.463.077.695.077z"/></symbol><symbol id="icon-instagram" viewBox="0 0 32 32"><path d="M28.279 11.412a8.935 8.935 0 0 0-.575-3.037 6.322 6.322 0 0 0-3.614-3.608 9.092 9.092 0 0 0-3-.576c-1.32-.059-1.739-.075-5.091-.075s-3.782 0-5.092.075a9.066 9.066 0 0 0-2.999.576 6.317 6.317 0 0 0-3.614 3.608 8.96 8.96 0 0 0-.575 2.994c-.059 1.32-.077 1.738-.077 5.084s0 3.774.077 5.084a9.037 9.037 0 0 0 .575 2.997 6.328 6.328 0 0 0 3.615 3.607c.955.373 1.97.584 2.999.617 1.322.059 1.74.077 5.092.077s3.781 0 5.092-.077a9.074 9.074 0 0 0 3-.574 6.334 6.334 0 0 0 3.614-3.608c.361-.959.554-1.97.575-2.997.059-1.318.077-1.736.077-5.084-.003-3.346-.003-3.771-.08-5.082zM15.99 22.781c-3.506 0-6.345-2.835-6.345-6.335s2.84-6.335 6.345-6.335c3.503 0 6.345 2.835 6.345 6.335s-2.843 6.335-6.345 6.335zm6.598-11.427a1.477 1.477 0 1 1 0-2.954 1.476 1.476 0 1 1 0 2.954z"/><path d="M15.992 20.314a3.866 3.866 0 1 0 0-7.732 3.866 3.866 0 0 0 0 7.732z"/></symbol><symbol id="icon-logo" viewBox="0 0 32 32"><path d="M22.13 0H9.87L0 9.87v12.26L9.87 32h12.26L32 22.13V9.87L22.13 0zM11.566 22.284l-6.323-6.323 6.323-6.323c2.39-2.39 6.323-2.39 8.713 0l6.323 6.323-6.323 6.323c-2.39 2.39-6.246 2.39-8.713 0z"/></symbol><symbol id="icon-minus" viewBox="0 0 32 32"><path stroke-linejoin="round" stroke-linecap="round" stroke-width="3" d="M5 16h22"/></symbol><symbol id="icon-pancil" viewBox="0 0 32 32"><path stroke-linejoin="round" stroke-linecap="round" stroke-width="2.88" d="M22.667 4a3.76 3.76 0 0 1 2.667-1.104 3.779 3.779 0 0 1 3.485 2.327 3.76 3.76 0 0 1 0 2.886c-.19.458-.467.873-.818 1.223l-18 18-7.333 2 2-7.333 18-18z"/></symbol><symbol id="icon-plus" viewBox="0 0 32 32"><path stroke-linejoin="round" stroke-linecap="round" stroke-width="3" d="M5 16h22M16 5v22"/></symbol><symbol id="icon-search" viewBox="0 0 32 32"><path stroke-linejoin="round" stroke-linecap="round" stroke-width="2.88" d="M14.667 25.333c5.891 0 10.667-4.776 10.667-10.667S20.558 3.999 14.667 3.999 4 8.775 4 14.666s4.776 10.667 10.667 10.667zM28 28l-5.8-5.8"/></symbol><symbol id="icon-trash" viewBox="0 0 32 32"><path stroke-linejoin="round" stroke-linecap="round" stroke-width="2.667" d="M21.333 8V6.933c0-1.493 0-2.24-.291-2.811a2.666 2.666 0 0 0-1.165-1.165c-.57-.291-1.317-.291-2.811-.291h-2.133c-1.493 0-2.24 0-2.811.291-.502.256-.91.664-1.165 1.165-.291.57-.291 1.317-.291 2.811V8m2.667 7.333V22m5.334-6.667V22M4 8h24m-2.667 0v14.933c0 2.24 0 3.36-.436 4.216a3.991 3.991 0 0 1-1.748 1.748c-.856.436-1.976.436-4.216.436h-5.867c-2.24 0-3.36 0-4.216-.436a3.991 3.991 0 0 1-1.748-1.748c-.436-.856-.436-1.976-.436-4.216V8"/></symbol><symbol id="icon-cancel-circle" viewBox="0 0 32 32"><path d="M16 0C7.163 0 0 7.163 0 16s7.163 16 16 16 16-7.163 16-16S24.837 0 16 0zm0 29C8.82 29 3 23.18 3 16S8.82 3 16 3s13 5.82 13 13-5.82 13-13 13z"/><path d="m21 8-5 5-5-5-3 3 5 5-5 5 3 3 5-5 5 5 3-3-5-5 5-5z"/></symbol><symbol id="icon-checkmark" viewBox="0 0 32 32"><path d="M27 4 12 19l-7-7-5 5 12 12L32 9z"/></symbol><symbol id="icon-pagination-arrow" viewBox="0 0 19 32"><path d="M16.364.842c.241.265.432.58.563.927s.198.718.198 1.094c0 .375-.067.747-.198 1.094s-.322.662-.563.927l-10.09 11.12 10.09 11.12c.486.536.759 1.263.759 2.02s-.273 1.485-.759 2.02c-.486.536-1.146.837-1.833.837s-1.347-.301-1.833-.837L.761 18.01c-.241-.265-.432-.58-.563-.927S0 16.365 0 15.989c0-.375.067-.747.198-1.094s.322-.662.563-.927L12.698.814c.988-1.089 2.653-1.089 3.667.029z"/></symbol><svg id="icon-google" xmlns="http://www.w3.org/2000/svg" preserveAspectRatio="xMidYMid" viewBox="0 0 256 262"><path fill="#4285F4" d="M255.878 133.451c0-10.734-.871-18.567-2.756-26.69H130.55v48.448h71.947c-1.45 12.04-9.283 30.172-26.69 42.356l-.244 1.622 38.755 30.023 2.685.268c24.659-22.774 38.875-56.282 38.875-96.027"/><path fill="#34A853" d="M130.55 261.1c35.248 0 64.839-11.605 86.453-31.622l-41.196-31.913c-11.024 7.688-25.82 13.055-45.257 13.055-34.523 0-63.824-22.773-74.269-54.25l-1.531.13-40.298 31.187-.527 1.465C35.393 231.798 79.49 261.1 130.55 261.1"/><path fill="#FBBC05" d="M56.281 156.37c-2.756-8.123-4.351-16.827-4.351-25.82 0-8.994 1.595-17.697 4.206-25.82l-.073-1.73L15.26 71.312l-1.335.635C5.077 89.644 0 109.517 0 130.55s5.077 40.905 13.925 58.602l42.356-32.782"/><path fill="#EB4335" d="M130.55 50.479c24.514 0 41.05 10.589 50.479 19.438l36.844-35.974C195.245 12.91 165.798 0 130.55 0 79.49 0 35.393 29.301 13.925 71.947l42.211 32.783c10.59-31.477 39.891-54.251 74.414-54.251"/></svg><svg id="icon-follow-us" xmlns="http://www.w3.org/2000/svg" version="1.1" viewBox="0 0 1024 1024"><path fill="#f3f3f3" d="M768 585.143q75.995 0 129.463 53.394T950.857 768t-53.394 129.463T768 950.857t-129.463-53.394T585.143 768q0-6.875 1.17-19.456L380.635 645.705q-52.59 49.152-124.562 49.152-75.995 0-129.463-53.394T73.216 512t53.394-129.463 129.463-53.394q71.973 0 124.562 49.152l205.678-102.839q-1.17-12.58-1.17-19.456 0-75.995 53.394-129.463T768 73.143t129.463 53.394T950.857 256t-53.394 129.463T768 438.857q-71.973 0-124.562-49.152L437.76 492.544q1.17 12.58 1.17 19.456t-1.17 19.456l205.678 102.839q52.59-49.152 124.562-49.152z"/></svg></defs></svg>